<svg xmlns="http://www.w3.org/2000/svg" width="390" height="844" viewBox="0 0 390 844" fill="none">
  <defs>
    <radialGradient id="glowCM" cx="50%" cy="20%" r="60%">
      <stop offset="0%" stop-color="#7A33FF" stop-opacity="0.26"/>
      <stop offset="66%" stop-color="#7A33FF" stop-opacity="0"/>
    </radialGradient>
  </defs>
  <rect width="390" height="844" fill="#140F28"/>
  <rect width="390" height="844" fill="url(#glowCM)"/>

  <rect x="24" y="38" width="26" height="26" rx="8" fill="#7A33FF"/>
  <text x="37" y="56" font-family="Inter, sans-serif" font-size="14" font-weight="800" fill="#FFFFFF" text-anchor="middle">g</text>
  <text x="58" y="56" font-family="Inter, sans-serif" font-size="17" font-weight="800" fill="#FFFFFF">GaanaAI</text>

  <rect x="20" y="150" width="350" height="560" rx="20" fill="#19142E" stroke="#FFFFFF" stroke-opacity="0.09"/>

  <circle cx="195" cy="226" r="31" fill="#28D684"/>
  <path d="M182 226 L191 235 L209 217" stroke="#0D0A17" stroke-width="4" fill="none" stroke-linecap="round" stroke-linejoin="round"/>

  <text x="195" y="290" font-family="Inter, sans-serif" font-size="21" font-weight="800" fill="#FFFFFF" text-anchor="middle">You’re all set 🎉</text>
  <text x="195" y="320" font-family="Inter, sans-serif" font-size="13.5" fill="#FFFFFF" fill-opacity="0.6" text-anchor="middle">We’ll email your full set of creatives</text>
  <text x="195" y="340" font-family="Inter, sans-serif" font-size="13.5" fill="#FFFFFF" fill-opacity="0.6" text-anchor="middle">to you@yourbrand.com shortly.</text>

  <g font-family="Inter, sans-serif" font-size="14" fill="#FFFFFF" fill-opacity="0.82">
    <text x="70" y="392" fill="#28D684" font-weight="800">✓</text><text x="92" y="392">A+ content image module</text>
    <text x="70" y="420" fill="#28D684" font-weight="800">✓</text><text x="92" y="420">Listing video (15s)</text>
    <text x="70" y="448" fill="#28D684" font-weight="800">✓</text><text x="92" y="448">Sponsored + Meta ad</text>
    <text x="70" y="476" fill="#28D684" font-weight="800">✓</text><text x="92" y="476">6 more on-brand variants</text>
    <text x="70" y="504" fill="#28D684" font-weight="800">✓</text><text x="92" y="504">Editable source files</text>
  </g>

  <rect x="44" y="540" width="302" height="50" rx="14" fill="#7A33FF"/>
  <text x="195" y="571" font-family="Inter, sans-serif" font-size="14" font-weight="700" fill="#FFFFFF" text-anchor="middle">Browse sample videos</text>
  <rect x="44" y="600" width="302" height="50" rx="14" fill="none" stroke="#FFFFFF" stroke-opacity="0.25"/>
  <text x="195" y="631" font-family="Inter, sans-serif" font-size="14" font-weight="700" fill="#FFFFFF" text-anchor="middle">Back to home</text>

  <text x="195" y="684" font-family="Inter, sans-serif" font-size="12.5" fill="#FFFFFF" fill-opacity="0.55" text-anchor="middle"><tspan fill="#B794FF" font-weight="700">Book a demo</tspan> for your whole catalog.</text>
</svg>
