<svg xmlns="http://www.w3.org/2000/svg" width="1440" height="1240" viewBox="0 0 1440 1240" fill="none">
  <defs>
    <linearGradient id="gl1" x1="0" y1="0" x2="1" y2="1"><stop offset="0%" stop-color="#EDE3FF"/><stop offset="100%" stop-color="#D9C8FF"/></linearGradient>
    <linearGradient id="gl2" x1="0" y1="0" x2="1" y2="1"><stop offset="0%" stop-color="#EFE7FF"/><stop offset="100%" stop-color="#C9B4FF"/></linearGradient>
    <linearGradient id="gl3" x1="0" y1="0" x2="1" y2="1"><stop offset="0%" stop-color="#E7E3FF"/><stop offset="100%" stop-color="#CDC4FF"/></linearGradient>
  </defs>
  <rect width="1440" height="1240" fill="#140F28"/>

  <rect x="64" y="42" width="30" height="30" rx="9" fill="#7A33FF"/>
  <text x="79" y="63" font-family="Inter, sans-serif" font-size="16" font-weight="800" fill="#FFFFFF" text-anchor="middle">g</text>
  <text x="104" y="63" font-family="Inter, sans-serif" font-size="19" font-weight="800" fill="#FFFFFF">GaanaAI</text>

  <text x="720" y="140" font-family="Inter, sans-serif" font-size="34" font-weight="800" letter-spacing="-0.6" fill="#FFFFFF" text-anchor="middle">Sample videos &amp; ad creative</text>
  <text x="720" y="174" font-family="Inter, sans-serif" font-size="16" fill="#FFFFFF" fill-opacity="0.6" text-anchor="middle">Real outputs across categories and platforms — all generated from a single product URL.</text>

  <!-- row 1 -->
  <g font-family="Inter, sans-serif">
    <!-- card 1 -->
    <rect x="180" y="220" width="346" height="460" rx="14" fill="#19142E" stroke="#FFFFFF" stroke-opacity="0.09"/>
    <rect x="180" y="220" width="346" height="384" rx="14" fill="url(#gl1)"/>
    <rect x="192" y="232" width="74" height="22" rx="6" fill="#2C234D" fill-opacity="0.62"/><text x="229" y="247" font-size="11" font-weight="800" fill="#FFFFFF" text-anchor="middle">Amazon</text>
    <circle cx="353" cy="412" r="24" fill="#FFFFFF" fill-opacity="0.94"/><path d="M347 402 L365 412 L347 422 Z" fill="#7A33FF"/>
    <text x="200" y="640" font-size="15" font-weight="700" fill="#FFFFFF">Earthwise PetLawn</text>
    <text x="200" y="662" font-size="12.5" fill="#FFFFFF" fill-opacity="0.6">Listing video · Lawn &amp; Garden</text>

    <!-- card 2 -->
    <rect x="547" y="220" width="346" height="460" rx="14" fill="#19142E" stroke="#FFFFFF" stroke-opacity="0.09"/>
    <rect x="547" y="220" width="346" height="384" rx="14" fill="url(#gl2)"/>
    <rect x="559" y="232" width="70" height="22" rx="6" fill="#2C234D" fill-opacity="0.62"/><text x="594" y="247" font-size="11" font-weight="800" fill="#FFFFFF" text-anchor="middle">Shopify</text>
    <circle cx="720" cy="412" r="24" fill="#FFFFFF" fill-opacity="0.94"/><path d="M714 402 L732 412 L714 422 Z" fill="#7A33FF"/>
    <text x="567" y="640" font-size="15" font-weight="700" fill="#FFFFFF">Lumera Skincare</text>
    <text x="567" y="662" font-size="12.5" fill="#FFFFFF" fill-opacity="0.6">PDP hero loop · Beauty</text>

    <!-- card 3 -->
    <rect x="914" y="220" width="346" height="460" rx="14" fill="#19142E" stroke="#FFFFFF" stroke-opacity="0.09"/>
    <rect x="914" y="220" width="346" height="384" rx="14" fill="url(#gl3)"/>
    <rect x="926" y="232" width="60" height="22" rx="6" fill="#2C234D" fill-opacity="0.62"/><text x="956" y="247" font-size="11" font-weight="800" fill="#FFFFFF" text-anchor="middle">TikTok</text>
    <circle cx="1087" cy="412" r="24" fill="#FFFFFF" fill-opacity="0.94"/><path d="M1081 402 L1099 412 L1081 422 Z" fill="#7A33FF"/>
    <text x="934" y="640" font-size="15" font-weight="700" fill="#FFFFFF">BoltPods</text>
    <text x="934" y="662" font-size="12.5" fill="#FFFFFF" fill-opacity="0.6">UGC hook ad · Electronics</text>

    <!-- row 2 -->
    <rect x="180" y="704" width="346" height="460" rx="14" fill="#19142E" stroke="#FFFFFF" stroke-opacity="0.09"/>
    <rect x="180" y="704" width="346" height="384" rx="14" fill="url(#gl1)"/>
    <rect x="192" y="716" width="80" height="22" rx="6" fill="#2C234D" fill-opacity="0.62"/><text x="232" y="731" font-size="11" font-weight="800" fill="#FFFFFF" text-anchor="middle">Instagram</text>
    <circle cx="353" cy="896" r="24" fill="#FFFFFF" fill-opacity="0.94"/><path d="M347 886 L365 896 L347 906 Z" fill="#7A33FF"/>
    <text x="200" y="1124" font-size="15" font-weight="700" fill="#FFFFFF">Casa Linens</text>
    <text x="200" y="1146" font-size="12.5" fill="#FFFFFF" fill-opacity="0.6">Story ad · Home</text>

    <rect x="547" y="704" width="346" height="460" rx="14" fill="#19142E" stroke="#FFFFFF" stroke-opacity="0.09"/>
    <rect x="547" y="704" width="346" height="384" rx="14" fill="url(#gl2)"/>
    <rect x="559" y="716" width="54" height="22" rx="6" fill="#2C234D" fill-opacity="0.62"/><text x="586" y="731" font-size="11" font-weight="800" fill="#FFFFFF" text-anchor="middle">Meta</text>
    <circle cx="720" cy="896" r="24" fill="#FFFFFF" fill-opacity="0.94"/><path d="M714 886 L732 896 L714 906 Z" fill="#7A33FF"/>
    <text x="567" y="1124" font-size="15" font-weight="700" fill="#FFFFFF">TrailFuel Bars</text>
    <text x="567" y="1146" font-size="12.5" fill="#FFFFFF" fill-opacity="0.6">Ad set · Food &amp; Bev</text>

    <rect x="914" y="704" width="346" height="460" rx="14" fill="#19142E" stroke="#FFFFFF" stroke-opacity="0.09"/>
    <rect x="914" y="704" width="346" height="384" rx="14" fill="url(#gl3)"/>
    <rect x="926" y="716" width="74" height="22" rx="6" fill="#2C234D" fill-opacity="0.62"/><text x="963" y="731" font-size="11" font-weight="800" fill="#FFFFFF" text-anchor="middle">Amazon</text>
    <circle cx="1087" cy="896" r="24" fill="#FFFFFF" fill-opacity="0.94"/><path d="M1081 886 L1099 896 L1081 906 Z" fill="#7A33FF"/>
    <text x="934" y="1124" font-size="15" font-weight="700" fill="#FFFFFF">AquaPure Bottle</text>
    <text x="934" y="1146" font-size="12.5" fill="#FFFFFF" fill-opacity="0.6">A+ module + video · Sports</text>
  </g>

  <rect x="640" y="1186" width="160" height="48" rx="24" fill="none" stroke="#FFFFFF" stroke-opacity="0.25"/>
  <text x="720" y="1215" font-family="Inter, sans-serif" font-size="14" font-weight="700" fill="#FFFFFF" text-anchor="middle">← Back to home</text>
</svg>
