<svg xmlns="http://www.w3.org/2000/svg" width="1440" height="980" viewBox="0 0 1440 980" fill="none">
  <defs>
    <linearGradient id="gv" x1="0" y1="0" x2="1" y2="1">
      <stop offset="0%" stop-color="#7A33FF"/><stop offset="100%" stop-color="#2C234D"/>
    </linearGradient>
  </defs>
  <rect width="1440" height="980" fill="#140F28"/>

  <!-- nav -->
  <rect x="64" y="42" width="30" height="30" rx="9" fill="#7A33FF"/>
  <text x="79" y="63" font-family="Inter, sans-serif" font-size="16" font-weight="800" fill="#FFFFFF" text-anchor="middle">g</text>
  <text x="104" y="63" font-family="Inter, sans-serif" font-size="19" font-weight="800" fill="#FFFFFF">GaanaAI</text>

  <!-- stepper -->
  <g font-family="Inter, sans-serif">
    <circle cx="300" cy="150" r="13" fill="#28D684"/><text x="300" y="155" font-size="11" font-weight="800" fill="#0D0A17" text-anchor="middle">✓</text>
    <text x="322" y="155" font-size="13" font-weight="600" fill="#FFFFFF" fill-opacity="0.65">Analyze</text>
    <rect x="404" y="149" width="170" height="2" fill="#7A33FF" fill-opacity="0.45"/>
    <circle cx="588" cy="150" r="13" fill="#28D684"/><text x="588" y="155" font-size="11" font-weight="800" fill="#0D0A17" text-anchor="middle">✓</text>
    <text x="610" y="155" font-size="13" font-weight="600" fill="#FFFFFF" fill-opacity="0.65">Channels</text>
    <rect x="704" y="149" width="170" height="2" fill="#7A33FF" fill-opacity="0.45"/>
    <circle cx="888" cy="150" r="13" fill="#28D684"/><text x="888" y="155" font-size="11" font-weight="800" fill="#0D0A17" text-anchor="middle">✓</text>
    <text x="910" y="155" font-size="13" font-weight="600" fill="#FFFFFF" fill-opacity="0.65">Insights</text>
    <rect x="1002" y="149" width="120" height="2" fill="#7A33FF" fill-opacity="0.45"/>
    <circle cx="1136" cy="150" r="13" fill="none" stroke="#7A33FF" stroke-width="2"/>
    <text x="1158" y="155" font-size="13" font-weight="700" fill="#FFFFFF">Create</text>
  </g>

  <!-- phase card -->
  <rect x="280" y="200" width="880" height="740" rx="18" fill="#19142E" stroke="#FFFFFF" stroke-opacity="0.09"/>
  <text x="304" y="248" font-family="Inter, sans-serif" font-size="15" font-weight="800" fill="#FFFFFF">Generating your creatives</text>

  <!-- note -->
  <rect x="304" y="268" width="832" height="78" rx="12" fill="#7A33FF" fill-opacity="0.1" stroke="#7A33FF" stroke-opacity="0.25"/>
  <text x="322" y="296" font-family="Inter, sans-serif" font-size="12.5" fill="#FFFFFF" fill-opacity="0.65">⏳ Rendering takes a little while — images ~15–20s, video up to ~40s. You can close this tab; we’ll email</text>
  <text x="322" y="315" font-family="Inter, sans-serif" font-size="12.5" fill="#FFFFFF" fill-opacity="0.65">everything to you when it’s ready.</text>
  <rect x="322" y="324" width="150" height="14" rx="7" fill="none"/>

  <!-- creative cards -->
  <!-- card 1: VIDEO -->
  <rect x="304" y="380" width="268" height="335" rx="12" fill="url(#gv)"/>
  <rect x="314" y="390" width="66" height="20" rx="6" fill="#000000" fill-opacity="0.5"/>
  <text x="347" y="404" font-family="Inter, sans-serif" font-size="10" font-weight="800" fill="#FFFFFF" text-anchor="middle">▶ VIDEO</text>
  <circle cx="438" cy="545" r="24" fill="#FFFFFF" fill-opacity="0.92"/>
  <path d="M432 535 L450 545 L432 555 Z" fill="#7A33FF"/>
  <rect x="320" y="694" width="236" height="3" rx="1.5" fill="#FFFFFF" fill-opacity="0.35"/>
  <rect x="320" y="694" width="100" height="3" rx="1.5" fill="#FFFFFF"/>
  <text x="304" y="742" font-family="Inter, sans-serif" font-size="14.5" font-weight="800" fill="#FFFFFF">Listing video</text>
  <text x="304" y="763" font-family="Inter, sans-serif" font-size="12" fill="#FFFFFF" fill-opacity="0.55"><tspan fill="#B794FF" font-weight="700">Why:</tspan> no video on the listing today.</text>

  <!-- card 2: AD -->
  <rect x="586" y="380" width="268" height="335" rx="12" fill="#FFFFFF"/>
  <rect x="586" y="380" width="268" height="196" fill="url(#gv)"/>
  <rect x="592" y="390" width="40" height="20" rx="6" fill="#000000" fill-opacity="0.5"/>
  <text x="612" y="404" font-family="Inter, sans-serif" font-size="10" font-weight="800" fill="#FFFFFF" text-anchor="middle">AD</text>
  <rect x="602" y="596" width="180" height="9" rx="4" fill="#2C234D" fill-opacity="0.16"/>
  <rect x="602" y="613" width="120" height="8" rx="4" fill="#2C234D" fill-opacity="0.13"/>
  <rect x="602" y="632" width="72" height="22" rx="11" fill="#7A33FF"/>
  <text x="638" y="647" font-family="Inter, sans-serif" font-size="9" font-weight="700" fill="#FFFFFF" text-anchor="middle">Shop now</text>
  <text x="586" y="742" font-family="Inter, sans-serif" font-size="14.5" font-weight="800" fill="#FFFFFF">Sponsored / Meta ad</text>
  <text x="586" y="763" font-family="Inter, sans-serif" font-size="12" fill="#FFFFFF" fill-opacity="0.55"><tspan fill="#B794FF" font-weight="700">Why:</tspan> matches your PDP story.</text>

  <!-- card 3: A+ -->
  <rect x="868" y="380" width="268" height="335" rx="12" fill="#FFFFFF"/>
  <rect x="876" y="390" width="48" height="20" rx="6" fill="#2C234D" fill-opacity="0.6"/>
  <text x="900" y="404" font-family="Inter, sans-serif" font-size="9.5" font-weight="800" fill="#FFFFFF" text-anchor="middle">A+ MODULE</text>
  <rect x="884" y="424" width="120" height="120" rx="8" fill="url(#gv)"/>
  <rect x="1016" y="436" width="108" height="9" rx="4" fill="#2C234D" fill-opacity="0.16"/>
  <rect x="1016" y="455" width="88" height="9" rx="4" fill="#2C234D" fill-opacity="0.13"/>
  <rect x="1016" y="474" width="100" height="9" rx="4" fill="#2C234D" fill-opacity="0.13"/>
  <rect x="1016" y="493" width="70" height="9" rx="4" fill="#2C234D" fill-opacity="0.1"/>
  <rect x="884" y="566" width="240" height="9" rx="4" fill="#2C234D" fill-opacity="0.13"/>
  <rect x="884" y="585" width="200" height="9" rx="4" fill="#2C234D" fill-opacity="0.1"/>
  <text x="868" y="742" font-family="Inter, sans-serif" font-size="14.5" font-weight="800" fill="#FFFFFF">A+ content image</text>
  <text x="868" y="763" font-family="Inter, sans-serif" font-size="12" fill="#FFFFFF" fill-opacity="0.55"><tspan fill="#B794FF" font-weight="700">Why:</tspan> a Premium-style module.</text>

  <!-- locked row -->
  <g font-family="Inter, sans-serif" font-size="12" font-weight="600">
    <rect x="304" y="792" width="118" height="30" rx="15" fill="#FFFFFF" fill-opacity="0.03" stroke="#FFFFFF" stroke-opacity="0.2" stroke-dasharray="4 3"/>
    <text x="318" y="811" fill="#FFFFFF" fill-opacity="0.45">🔒 TikTok hook</text>
    <rect x="434" y="792" width="150" height="30" rx="15" fill="#FFFFFF" fill-opacity="0.03" stroke="#FFFFFF" stroke-opacity="0.2" stroke-dasharray="4 3"/>
    <text x="448" y="811" fill="#FFFFFF" fill-opacity="0.45">🔒 Lifestyle image set</text>
    <rect x="596" y="792" width="138" height="30" rx="15" fill="#FFFFFF" fill-opacity="0.03" stroke="#FFFFFF" stroke-opacity="0.2" stroke-dasharray="4 3"/>
    <text x="610" y="811" fill="#FFFFFF" fill-opacity="0.45">🔒 Comparison card</text>
    <rect x="746" y="792" width="128" height="30" rx="15" fill="#FFFFFF" fill-opacity="0.03" stroke="#FFFFFF" stroke-opacity="0.2" stroke-dasharray="4 3"/>
    <text x="760" y="811" fill="#FFFFFF" fill-opacity="0.45">🔒 Bundle promo</text>
  </g>

  <!-- unlock -->
  <rect x="540" y="858" width="360" height="54" rx="27" fill="#7A33FF"/>
  <text x="720" y="892" font-family="Inter, sans-serif" font-size="15" font-weight="700" fill="#FFFFFF" text-anchor="middle">Unlock my full creative set  →</text>
</svg>
